# xmcd CD database file
#
# Track frame offsets:
#	150
#	17992
#	33643
#	51289
#	67155
#	85169
#	100299
#	117138
#	134185
#	150902
#	164470
#	181441
#	197360
#
# Disc length: 2856 seconds
#
# Revision: 0
# Processed by: cddbd v1.5.1PL0 Copyright (c) Steve Scherf et al.
# Submitted via: CDex 1.51
#
DISCID=b40b260d
DTITLE=561 Bob Brolly - Prrecious Years
DYEAR=1900
DGENRE=Country
TTITLE0=Precious Years
TTITLE1=Teardrop Falls
TTITLE2=Heart Of Stone
TTITLE3=Home Town On The Foyle
TTITLE4=I Will Love You All My Life
TTITLE5=Real World
TTITLE6=More Than Yesterday
TTITLE7=Paddy Riley
TTITLE8=Perculiar Way
TTITLE9=I Remember You
TTITLE10=Let It Be Me
TTITLE11=Every Step Of The Way
TTITLE12=Dannyboy
EXTD=
EXTT0=
EXTT1=
EXTT2=
EXTT3=
EXTT4=
EXTT5=
EXTT6=
EXTT7=
EXTT8=
EXTT9=
EXTT10=
EXTT11=
EXTT12=
PLAYORDER=
